<svg xmlns="http://www.w3.org/2000/svg" height="512pt" version="1.1" viewBox="0 -10 512.00002 512" width="512pt">
<g id="surface1">
<path d="M 403.085938 193.589844 C 406.714844 180.558594 408.664062 166.835938 408.664062 152.664062 C 408.664062 122.070312 399.644531 92.554688 382.585938 67.300781 C 380.234375 63.824219 375.511719 62.90625 372.027344 65.257812 C 368.546875 67.609375 367.632812 72.335938 369.984375 75.816406 C 385.339844 98.542969 393.453125 125.117188 393.453125 152.664062 C 393.453125 165.585938 391.660156 178.09375 388.308594 189.960938 C 378.925781 188.148438 369.242188 187.191406 359.335938 187.191406 C 319.511719 187.191406 283.207031 202.523438 256 227.585938 C 228.789062 202.523438 192.484375 187.191406 152.664062 187.191406 C 142.757812 187.191406 133.074219 188.148438 123.6875 189.960938 C 120.339844 178.09375 118.542969 165.585938 118.542969 152.664062 C 118.542969 76.871094 180.207031 15.207031 256 15.207031 C 292.714844 15.207031 327.234375 29.503906 353.195312 55.46875 C 356.164062 58.4375 360.976562 58.4375 363.949219 55.46875 C 366.917969 52.496094 366.917969 47.683594 363.949219 44.714844 C 335.113281 15.878906 296.777344 0 256 0 C 171.820312 0 103.335938 68.484375 103.335938 152.664062 C 103.335938 166.835938 105.285156 180.558594 108.914062 193.589844 C 45.992188 212.445312 0 270.875 0 339.851562 C 0 424.03125 68.484375 492.515625 152.664062 492.515625 C 162.441406 492.515625 172.222656 491.585938 181.742188 489.75 C 185.867188 488.953125 188.566406 484.964844 187.769531 480.84375 C 186.972656 476.71875 182.984375 474.023438 178.863281 474.816406 C 170.289062 476.46875 161.476562 477.308594 152.664062 477.308594 C 76.871094 477.308594 15.207031 415.648438 15.207031 339.851562 C 15.207031 277.578125 56.839844 224.855469 113.730469 208.023438 C 130.722656 251.542969 167.132812 285.40625 212.25 298.929688 C 208.621094 311.957031 206.671875 325.683594 206.671875 339.851562 C 206.671875 378.789062 221.332031 414.359375 245.414062 441.355469 C 234.066406 451.71875 220.871094 460.289062 206.164062 466.507812 C 202.296875 468.144531 200.488281 472.609375 202.125 476.476562 C 203.761719 480.34375 208.222656 482.152344 212.089844 480.515625 C 228.601562 473.53125 243.394531 463.878906 256.085938 452.199219 C 283.285156 477.214844 319.554688 492.515625 359.335938 492.515625 C 443.515625 492.515625 512 424.03125 512 339.851562 C 512 270.875 466.007812 212.445312 403.085938 193.589844 Z M 383.300781 204.492188 C 367.621094 242.867188 335.082031 272.617188 294.933594 284.496094 C 288.277344 267.445312 278.636719 251.878906 266.660156 238.433594 C 291.117188 216.0625 323.660156 202.398438 359.335938 202.398438 C 367.507812 202.398438 375.515625 203.117188 383.300781 204.492188 Z M 256 249.320312 C 266 260.71875 274.140625 273.777344 279.964844 288.023438 C 272.179688 289.398438 264.171875 290.121094 256 290.121094 C 247.828125 290.121094 239.820312 289.398438 232.035156 288.023438 C 237.859375 273.777344 246 260.71875 256 249.320312 Z M 128.699219 204.492188 C 136.484375 203.121094 144.492188 202.398438 152.664062 202.398438 C 188.339844 202.398438 220.882812 216.066406 245.339844 238.433594 C 233.363281 251.878906 223.722656 267.445312 217.066406 284.496094 C 176.917969 272.617188 144.378906 242.863281 128.699219 204.492188 Z M 227.027344 302.558594 C 236.410156 304.367188 246.09375 305.328125 256 305.328125 C 265.90625 305.328125 275.589844 304.367188 284.972656 302.558594 C 288.324219 314.421875 290.117188 326.933594 290.117188 339.855469 C 290.117188 373.960938 277.597656 405.914062 256.074219 430.472656 C 234.800781 406.261719 221.878906 374.539062 221.878906 339.855469 C 221.882812 326.933594 223.675781 314.421875 227.027344 302.558594 Z M 359.335938 477.308594 C 323.710938 477.308594 291.207031 463.683594 266.761719 441.371094 C 291.136719 413.984375 305.328125 378.136719 305.328125 339.855469 C 305.328125 325.683594 303.378906 311.960938 299.75 298.929688 C 344.867188 285.410156 381.277344 251.542969 398.269531 208.023438 C 455.160156 224.855469 496.792969 277.578125 496.792969 339.851562 C 496.792969 415.648438 435.128906 477.308594 359.335938 477.308594 Z M 359.335938 477.308594 " style=" stroke:none;fill-rule:nonzero;fill:rgb(0%,0%,0%);fill-opacity:1;" />
</g>
</svg>