<?xml version="1.0" encoding="iso-8859-1"?>
<!-- Generator: Adobe Illustrator 19.0.0, SVG Export Plug-In . SVG Version: 6.00 Build 0)  -->
<svg version="1.1" id="Capa_1" xmlns="http://www.w3.org/2000/svg" xmlns:xlink="http://www.w3.org/1999/xlink" x="0px" y="0px"
	 viewBox="0 0 512 512" style="enable-background:new 0 0 512 512;" xml:space="preserve">
<g>
	<g>
		<path d="M251.291,276.926c-1.86-1.86-4.431-2.93-7.07-2.93c-2.63,0-5.21,1.069-7.07,2.93c-1.859,1.86-2.93,4.44-2.93,7.07
			c0,2.63,1.07,5.21,2.93,7.069c1.86,1.86,4.44,2.931,7.07,2.931c2.63,0,5.21-1.07,7.07-2.931c1.859-1.859,2.93-4.439,2.93-7.069
			C254.221,281.366,253.151,278.786,251.291,276.926z"/>
	</g>
</g>
<g>
	<g>
		<path d="M473.997,217.997h-24.111c-14.207-29.552-44.441-49.999-79.363-49.999s-65.156,20.448-79.363,49.999H38.004
			c-20.953,0-37.999,17.047-37.999,37.999c0,20.953,17.047,37.999,37.999,37.999h160.331c5.522,0,10-4.478,10-10s-4.478-10-10-10
			H38.004c-9.925,0-18-8.075-18-18c0-9.925,8.075-18,18-18h246.374c-1.213,5.813-1.854,11.833-1.854,18
			c0,48.522,39.476,87.999,87.999,87.999c34.921,0,65.156-20.448,79.363-49.999h24.111c20.953,0,37.999-17.047,37.999-37.999
			C511.996,235.043,494.95,217.997,473.997,217.997z M370.523,323.995c-37.494,0-67.999-30.505-67.999-67.999
			c0-37.494,30.505-67.999,67.999-67.999c37.494,0,67.999,30.505,67.999,67.999C438.522,293.49,408.017,323.995,370.523,323.995z
			 M473.997,273.996h-17.329c1.213-5.813,1.854-11.833,1.854-18c0-6.167-0.641-12.188-1.854-18h17.329c9.925,0,18,8.075,18,18
			C491.997,265.921,483.922,273.996,473.997,273.996z"/>
	</g>
</g>
<g>
	<g>
		<path d="M473.997,386.119H245.643c-14.183-29.614-44.45-50.116-79.418-50.116c-34.967,0-65.235,20.503-79.418,50.116H38.004
			c-20.953,0-37.999,17.047-37.999,37.999c0,20.953,17.047,37.999,37.999,37.999h48.912C101.146,491.606,131.348,512,166.224,512
			c34.875,0,65.078-20.394,79.308-49.882h228.464c20.953,0,37.999-17.047,37.999-37.999
			C511.995,403.166,494.95,386.119,473.997,386.119z M38.004,442.118c-9.925,0-18-8.075-18-18c0-9.925,8.075-18,18-18h42.05
			c-1.197,5.776-1.828,11.757-1.828,17.883c0,6.209,0.65,12.268,1.879,18.117H38.004z M166.225,492
			c-37.494,0-67.999-30.505-67.999-67.999c0-37.494,30.505-67.999,67.999-67.999c37.494,0,67.999,30.505,67.999,67.999
			C234.224,461.496,203.719,492,166.225,492z M473.997,442.118H252.344c1.229-5.849,1.879-11.908,1.879-18.117
			c0-6.126-0.631-12.107-1.828-17.883h221.602c9.925,0,18,8.075,18,18C491.996,434.043,483.922,442.118,473.997,442.118z"/>
	</g>
</g>
<g>
	<g>
		<path d="M356.068,52.929c-1.859-1.86-4.439-2.93-7.069-2.93c-2.63,0-5.21,1.069-7.07,2.93c-1.86,1.861-2.93,4.44-2.93,7.07
			c0,2.63,1.069,5.21,2.93,7.069c1.86,1.861,4.44,2.931,7.07,2.931c2.63,0,5.21-1.07,7.069-2.931
			c1.86-1.859,2.931-4.439,2.931-7.069C358.999,57.369,357.929,54.789,356.068,52.929z"/>
	</g>
</g>
<g>
	<g>
		<path d="M473.996,49.999h-88.499c-5.522,0-10,4.478-10,10s4.478,10,10,10h88.499c9.925,0,18,8.075,18,18c0,9.925-8.075,18-18,18
			H252.37c1.213-5.813,1.854-11.833,1.854-18c0-6.167-0.641-12.188-1.854-18H307c5.522,0,10-4.478,10-10s-4.478-10-10-10h-61.412
			C231.381,20.448,201.146,0,166.225,0s-65.156,20.448-79.363,49.999H38.004c-20.953,0-37.999,17.047-37.999,37.999
			c0,20.953,17.047,37.999,37.999,37.999h48.857c14.207,29.552,44.441,49.999,79.363,49.999s65.156-20.448,79.363-49.999h228.409
			c20.953,0,37.999-17.047,37.999-37.999C511.995,67.046,494.949,49.999,473.996,49.999z M80.079,105.998H38.004
			c-9.925,0-18-8.075-18-18c0-9.925,8.075-18,18-18h42.075c-1.213,5.813-1.854,11.833-1.854,18
			C78.225,94.166,78.866,100.186,80.079,105.998z M166.225,155.998c-37.494,0-67.999-30.505-67.999-67.999
			C98.226,50.504,128.729,20,166.225,20c37.494,0,67.999,30.505,67.999,67.999C234.224,125.493,203.719,155.998,166.225,155.998z"/>
	</g>
</g>
<g>
</g>
<g>
</g>
<g>
</g>
<g>
</g>
<g>
</g>
<g>
</g>
<g>
</g>
<g>
</g>
<g>
</g>
<g>
</g>
<g>
</g>
<g>
</g>
<g>
</g>
<g>
</g>
<g>
</g>
</svg>
